{"title":"Tum Mil Sahi (2010) Repack DVD Rip X264 AC3 Multi-Subs [Dare DEv","uid":5540879,"size":947497264,"categoryP":"video","categoryS":"movies","magnet":"?xt=urn:btih:8322cfeb55a2adcf288b7ddb6ae709143d43628d&amp;dn=Tum+Mil+Sahi+%282010%29+Repack+DVD+Rip+X264+AC3+Multi-Subs+%5BDare+DEv&amp;tr=udp%3A%2F%2Ftracker.openbittorrent.com%3A80&amp;tr=udp%3A%2F%2Fopen.demonii.com%3A1337&amp;tr=udp%3A%2F%2Ftracker.coppersurfer.tk%3A6969&amp;tr=udp%3A%2F%2Fexodus.desync.com%3A6969","seeders":2,"leechers":0,"uploader":"luvwithromio","files":-1,"time":1273227664,"description":"Format                           : AVI\nFormat/Info                      : Audio Video Interleave\nFile size                        : 895 MiB\nDuration                         : 2h 8mn\nOverall bit rate                 : 974 Kbps\n\nVideo\nID                               : 0\nFormat                           : AVC\nFormat/Info                      : Advanced Video Codec\nFormat profile                   : &lt;a class=&quot;__cf_email__&quot; href=&quot;/cdn-cgi/l/email-protection&quot; data-cfemail=&quot;d69ebfb1be969ae4f8e7&quot;&gt;[email&amp;#160;protected]&lt;/a&gt;&lt;script cf-hash='f9e31' type=&quot;text/javascript&quot;&gt;\n/* &lt;![CDATA[ */!function(){try{var t=&quot;currentScript&quot;in document?document.currentScript:function(){for(var t=document.getElementsByTagName(&quot;script&quot;),e=t.length;e--;)if(t[e].getAttribute(&quot;cf-hash&quot;))return t[e]}();if(t&amp;&amp;t.previousSibling){var e,r,n,i,c=t.previousSibling,a=c.getAttribute(&quot;data-cfemail&quot;);if(a){for(e=&quot;&quot;,r=parseInt(a.substr(0,2),16),n=2;a.length-n;n+=2)i=parseInt(a.substr(n,2),16)^r,e+=String.fromCharCode(i);e=document.createTextNode(e),c.parentNode.replaceChild(e,c)}}}catch(u){}}();/* ]]&gt; */&lt;/script&gt;\nFormat settings, CABAC           : Yes\nFormat settings, ReFrames        : 3 frames\nCodec ID                         : H264\nDuration                         : 2h 8mn\nBit rate                         : 770 Kbps\nWidth                            : 608 pixels\nHeight                           : 256 pixels\nDisplay aspect ratio             : 2.35:1\nFrame rate                       : 23.976 fps\nResolution                       : 8 bits\nColorimetry                      : 4:2:0\nScan type                        : Progressive\nBits/(Pixel*Frame)               : 0.206\nStream size                      : 706 MiB (79%)\nWriting library                  : x264 core 68\n\nAudio\nID                               : 1\nFormat                           : AAC\nFormat/Info                      : Advanced Audio Codec\nFormat version                   : Version 4\nFormat profile                   : LC\nFormat settings, SBR             : No\nCodec ID                         : FF\nDuration                         : 2h 8mn\nBit rate                         : 192 Kbps\nChannel(s)                       : 6 channels\nChannel positions                : Front: L C R, Side: L R, LFE\nSampling rate                    : 48.0 KHz\nStream size                      : 177 MiB (20%)\nAlignment                        : Aligned on interleaves\nInterleave, duration             : 21 ms (0.51 video frame)","torrent":{"xt":"urn:btih:8322cfeb55a2adcf288b7ddb6ae709143d43628d","amp;dn":"Tum+Mil+Sahi+%282010%29+Repack+DVD+Rip+X264+AC3+Multi-Subs+%5BDare+DEv","amp;tr":["udp%3A%2F%2Ftracker.openbittorrent.com%3A80","udp%3A%2F%2Fopen.demonii.com%3A1337","udp%3A%2F%2Ftracker.coppersurfer.tk%3A6969","udp%3A%2F%2Fexodus.desync.com%3A6969"],"infoHash":"8322cfeb55a2adcf288b7ddb6ae709143d43628d","infoHashBuffer":{"type":"Buffer","data":[131,34,207,235,85,162,173,207,40,139,125,219,106,231,9,20,61,67,98,141]},"announce":[],"urlList":[]}}